<mxfile host="65bd71144e">
    <diagram id="SXKyU4e9sjQW3TP8jOlG" name="Page-1">
        <mxGraphModel dx="1024" dy="553" grid="1" gridSize="10" guides="1" tooltips="1" connect="1" arrows="1" fold="1" page="1" pageScale="1" pageWidth="2339" pageHeight="3300" background="#ffffff" math="0" shadow="0">
            <root>
                <mxCell id="0"/>
                <mxCell id="1" parent="0"/>
                <mxCell id="6" style="edgeStyle=none;html=1;exitX=0.5;exitY=1;exitDx=0;exitDy=0;" edge="1" parent="1" source="2" target="3">
                    <mxGeometry relative="1" as="geometry"/>
                </mxCell>
                <mxCell id="2" value="&lt;font color=&quot;#000000&quot;&gt;简化&lt;/font&gt;" style="rounded=0;whiteSpace=wrap;html=1;fillColor=#F0F0F0;strokeColor=#000000;" vertex="1" parent="1">
                    <mxGeometry x="470" y="220" width="260" height="40" as="geometry"/>
                </mxCell>
                <mxCell id="3" value="&lt;font color=&quot;#000000&quot;&gt;configurations&lt;/font&gt;" style="rounded=0;whiteSpace=wrap;html=1;fillColor=#F0F0F0;strokeColor=#000000;" vertex="1" parent="1">
                    <mxGeometry x="170" y="360" width="590" height="50" as="geometry"/>
                </mxCell>
                <mxCell id="5" style="edgeStyle=none;html=1;exitX=0.5;exitY=1;exitDx=0;exitDy=0;entryX=0.25;entryY=0;entryDx=0;entryDy=0;" edge="1" parent="1" source="4" target="3">
                    <mxGeometry relative="1" as="geometry"/>
                </mxCell>
                <mxCell id="4" value="&lt;font color=&quot;#000000&quot;&gt;完整&lt;/font&gt;" style="rounded=0;whiteSpace=wrap;html=1;fillColor=#F0F0F0;strokeColor=#000000;" vertex="1" parent="1">
                    <mxGeometry x="190" y="220" width="260" height="40" as="geometry"/>
                </mxCell>
            </root>
        </mxGraphModel>
    </diagram>
</mxfile>